<svg baseProfile="tiny" viewBox="0 0 24 24" xml:space="preserve" xmlns="http://www.w3.org/2000/svg"><path d="m-.009 24 2.194-5.704a11.804 11.804 0 0 1-1.896-6.435C.289 5.32 5.609 0 12.149 0c6.539 0 11.86 5.32 11.86 11.861 0 6.539-5.321 11.86-11.86 11.86a11.81 11.81 0 0 1-6.291-1.813L-.009 24zm5.976-3.026.175.114a10.954 10.954 0 0 0 6.007 1.79c6.076 0 11.017-4.941 11.017-11.017S18.225.842 12.149.842 1.131 5.785 1.131 11.861c0 2.202.648 4.328 1.874 6.149l.123.182-1.692 4.399 4.531-1.617z" fill="#54c219" class="fill-000000"></path><path d="M15.135 17.749c-1.433 0-4.369-1.708-5.768-3.108C8.116 13.39 6.26 10.417 6.26 8.874c0-1.542 1.646-3.259 2.761-3.259h.155l.117.1c.296.252 1.788 1.534 2.087 2.117.432.842-.624 2.048-1.181 2.6.249.314.815.986 1.603 1.774.743.744 1.649 1.145 2.07 1.305.366-.36 1.113-1.003 1.796-1.003l.1.011.415.113c.578.297 1.859 1.789 2.109 2.084l.1.118v.154c0 1.116-1.715 2.761-3.257 2.761zM8.886 6.474c-.666.16-1.785 1.385-1.785 2.4 0 1.275 1.731 4.042 2.861 5.172 1.364 1.364 4.071 2.861 5.173 2.861 1.015 0 2.239-1.12 2.397-1.785-.561-.65-1.373-1.521-1.697-1.722l-.208-.05c-.336.035-.928.488-1.326.927l-.179.196-.255-.076c-.155-.046-1.546-.483-2.661-1.597-.73-.73-1.856-1.975-1.954-2.325l-.071-.251.195-.175c.758-.681 1.379-1.589 1.253-1.833-.152-.299-1.067-1.158-1.743-1.742z" fill="#54c219" class="fill-000000"></path></svg>