<svg width="296" height="296" viewBox="0 0 296 296" fill="none" xmlns="http://www.w3.org/2000/svg">
<g clip-path="url(#clip0_1_22)">
<path d="M147.998 0C66.392 0 0 66.392 0 147.998C0 229.604 66.392 295.996 147.998 295.996C229.604 295.996 295.996 229.604 295.996 147.998C295.996 66.392 229.604 0 147.998 0ZM147.998 279.996C111.741 279.996 78.855 265.3 54.975 241.556C45.439 232.074 37.344 221.146 31.041 209.136C21.442 190.847 16 170.047 16 147.998C16 75.214 75.214 16 147.998 16C182.521 16 213.985 29.328 237.531 51.102C249.739 62.39 259.82 75.946 267.089 91.098C275.359 108.337 279.996 127.636 279.996 147.998C279.996 220.782 220.782 279.996 147.998 279.996Z" fill="#5E5E5E"/>
<path d="M163.638 187.607C181.192 191.278 196.96 201.147 208.038 215.396L220.669 205.576C207.267 188.336 188.175 176.392 166.913 171.945C132.718 164.799 96.767 177.997 75.326 205.576L87.959 215.396C105.675 192.607 135.382 181.697 163.638 187.607Z" fill="#5E5E5E"/>
<path d="M98.666 130.998C107.503 130.998 114.666 123.835 114.666 114.998C114.666 106.161 107.503 98.998 98.666 98.998C89.8294 98.998 82.666 106.161 82.666 114.998C82.666 123.835 89.8294 130.998 98.666 130.998Z" fill="#5E5E5E"/>
<path d="M197.666 130.998C206.503 130.998 213.666 123.835 213.666 114.998C213.666 106.161 206.503 98.998 197.666 98.998C188.829 98.998 181.666 106.161 181.666 114.998C181.666 123.835 188.829 130.998 197.666 130.998Z" fill="#5E5E5E"/>
</g>
<defs>
<clipPath id="clip0_1_22">
<rect width="295.996" height="295.996" fill="white"/>
</clipPath>
</defs>
</svg>
